<svg width="50" height="50" viewBox="0 0 50 50" fill="none" xmlns="http://www.w3.org/2000/svg">
<rect width="50" height="50" rx="14" fill="black"/>
<path d="M36.5265 13.3175C33.4365 10.2275 28.4065 10.2275 25.3165 13.3175L21.3165 17.3175C21.0899 17.5475 20.8799 17.7875 20.6865 18.0375C21.9426 17.721 23.2518 17.6764 24.5265 17.9065C24.7845 17.9518 25.0412 18.0085 25.2965 18.0765L25.3055 18.1385L27.7265 15.7175C28.1464 15.2966 28.6452 14.9627 29.1943 14.7349C29.7434 14.507 30.332 14.3897 30.9265 14.3897C31.521 14.3897 32.1097 14.507 32.6588 14.7349C33.2079 14.9627 33.7067 15.2966 34.1265 15.7175C35.8865 17.4875 35.8965 20.3575 34.1265 22.1175L30.1265 26.1175C29.3665 26.8775 28.3965 27.2875 27.4065 27.3975C26.0965 27.5375 24.7265 27.1275 23.7265 26.1175C23.0741 25.4588 22.641 24.6147 22.4865 23.7005C21.7747 23.7874 21.1116 24.1074 20.6005 24.6105L19.5145 25.6975C19.9099 26.7563 20.5278 27.7179 21.3265 28.5175C22.4707 29.6638 23.9411 30.4287 25.5365 30.7075C26.7942 30.9267 28.0861 30.8413 29.304 30.4586C30.5219 30.0758 31.6304 29.4068 32.5365 28.5075L36.5365 24.5075C39.6165 21.4375 39.6165 16.4075 36.5265 13.3175Z" fill="white"/>
<path d="M28.5275 32.5375C28.7608 32.3002 28.9762 32.0528 29.1735 31.7955C27.9141 32.113 26.602 32.1617 25.3225 31.9385C25.0431 31.8896 24.7651 31.8275 24.4915 31.7525L22.1165 34.1275C21.6966 34.5484 21.1979 34.8823 20.6488 35.1101C20.0997 35.338 19.511 35.4553 18.9165 35.4553C18.322 35.4553 17.7333 35.338 17.1842 35.1101C16.6351 34.8823 16.1364 34.5484 15.7165 34.1275C15.2956 33.7076 14.9617 33.2089 14.7339 32.6598C14.506 32.1107 14.3887 31.522 14.3887 30.9275C14.3887 30.333 14.506 29.7443 14.7339 29.1952C14.9617 28.6461 15.2956 28.1474 15.7165 27.7275L19.7165 23.7275C20.4765 22.9675 21.4465 22.5575 22.4365 22.4475C23.7465 22.3075 25.1165 22.7175 26.1165 23.7275C26.7695 24.3857 27.2033 25.2294 27.3585 26.1435C28.07 26.0563 28.7327 25.7364 29.2435 25.2335L30.3295 24.1465C29.9342 23.0877 29.3163 22.1261 28.5175 21.3265C27.3733 20.1802 25.903 19.4153 24.3075 19.1365C22.7494 18.8571 21.1434 19.0522 19.6975 19.6965C18.8375 20.0765 18.0275 20.6165 17.3175 21.3265L13.3175 25.3265C10.2275 28.4165 10.2275 33.4465 13.3175 36.5365C16.4075 39.6265 21.4375 39.6265 24.5275 36.5365L28.5275 32.5375Z" fill="white"/>
</svg>
