<svg width="100" height="100" viewBox="0 0 100 100" fill="none" xmlns="http://www.w3.org/2000/svg">
<rect width="100" height="100" rx="26" fill="black"/>
<path d="M76.6136 32.8011V58.3709L80.9869 61.0993V35.5296L76.6136 32.8011ZM18 61.0993L22.3733 58.3709V32.8011L18 35.5296V61.0993ZM39.4331 60.8474L59.5537 73.3691V67.9262L40.7168 56.2028L39.4331 57.0009V60.8474ZM60.7088 80.629L39.4331 67.38V72.8228L45.1136 76.3608L38.2781 80.6149C38.1741 80.6805 38.0878 80.7743 38.0279 80.887C37.9679 80.9997 37.9364 81.1274 37.9364 81.2574C37.9364 81.3873 37.9679 81.515 38.0279 81.6277C38.0878 81.7404 38.1741 81.8342 38.2781 81.8999L41.6119 83.9859L49.4869 79.0893L57.3619 83.9859L60.6956 81.8999C61.1629 81.6366 61.1629 80.9092 60.7088 80.629ZM76.6136 48.0484V70.7255C76.6136 71.2972 77.1859 71.6623 77.6531 71.368L80.6509 69.5084C80.7554 69.4421 80.8424 69.3479 80.9036 69.2349C80.9647 69.1219 80.9979 68.9939 81 68.8631V45.3341L76.6136 48.0484ZM68.0273 77.3543L70.8412 75.5909C70.9996 75.4944 71.1312 75.354 71.2226 75.1844C71.3139 75.0147 71.3617 74.8219 71.361 74.6258V51.3232L66.9878 54.0489V76.7259C66.9878 77.2863 67.56 77.6486 68.0273 77.3543ZM57.3619 84L61.3965 81.4951C61.5012 81.4294 61.5885 81.3358 61.65 81.2233C61.7116 81.1108 61.7454 80.9832 61.7483 80.8526V57.3095L57.3619 60.038V84ZM37.5904 81.481L41.625 83.9859V60.038L37.2518 57.3095V80.8385C37.2518 81.1045 37.383 81.3564 37.5904 81.481ZM28.1456 75.6051L30.9596 77.3684C31.0648 77.4329 31.1837 77.4667 31.3047 77.4665C31.4257 77.4663 31.5445 77.432 31.6495 77.3672C31.7545 77.3023 31.8419 77.209 31.9032 77.0966C31.9645 76.9841 31.9976 76.8563 31.9991 76.7259V54.0347L27.6259 51.309V74.6258C27.6259 75.0333 27.8201 75.4098 28.1456 75.6051ZM18.5197 69.6188L21.3337 71.3821C21.4391 71.4467 21.5583 71.4806 21.6795 71.4802C21.8007 71.4799 21.9197 71.4454 22.0247 71.3802C22.1298 71.315 22.2172 71.2213 22.2783 71.1084C22.3395 70.9956 22.3722 70.8675 22.3733 70.7368V48.0484L18 45.3341V68.6536C18 69.0442 18.1943 69.4094 18.5197 69.6188ZM80.9869 35.5296L76.6136 32.8011L68.7386 37.6977L63.4991 34.4371L70.3346 30.1859C70.4386 30.1199 70.5248 30.0257 70.5847 29.9128C70.6445 29.7999 70.676 29.672 70.676 29.5419C70.676 29.4119 70.6445 29.284 70.5847 29.1711C70.5248 29.0582 70.4386 28.964 70.3346 28.898L67.5075 27.1347C67.3495 27.0379 67.1708 26.9871 66.9891 26.9871C66.8073 26.9871 66.6287 27.0379 66.4706 27.1347L59.1127 31.7086L53.8733 28.4508L60.7088 24.1968C60.8128 24.1311 60.899 24.0373 60.959 23.9246C61.0189 23.8119 61.0505 23.6842 61.0505 23.5543C61.0505 23.4243 61.0189 23.2966 60.959 23.1839C60.899 23.0712 60.8128 22.9774 60.7088 22.9118L57.8816 21.1484C57.7233 21.0512 57.5441 21 57.3619 21C57.1796 21 57.0005 21.0512 56.8421 21.1484L49.4869 25.7223L42.1316 21.1484C41.9733 21.0512 41.7941 21 41.6119 21C41.4296 21 41.2505 21.0512 41.0921 21.1484L38.265 22.9118C38.161 22.9774 38.0747 23.0712 38.0148 23.1839C37.9548 23.2966 37.9233 23.4243 37.9233 23.5543C37.9233 23.6842 37.9548 23.8119 38.0148 23.9246C38.0747 24.0373 38.161 24.1311 38.265 24.1968L76.59 48.0626L80.9606 45.3341L73.0856 40.4375L80.9869 35.5296ZM31.4794 27.1347L28.6654 28.898C28.5614 28.964 28.4752 29.0582 28.4153 29.1711C28.3555 29.284 28.324 29.4119 28.324 29.5419C28.324 29.672 28.3555 29.7999 28.4153 29.9128C28.4752 30.0257 28.5614 30.1199 28.6654 30.1859L66.9878 54.0489L71.361 51.3232L32.5163 27.1347C32.3582 27.0379 32.1796 26.9871 31.9978 26.9871C31.8161 26.9871 31.6374 27.0379 31.4794 27.1347ZM18 35.5296L25.875 40.4234L18 45.3341L22.3864 48.0484L30.2482 43.1519L35.5009 46.4266L27.6259 51.3232L31.9991 54.0489L39.8741 49.141L45.1136 52.4129L37.2386 57.3095L41.625 60.038L49.4869 55.1272L57.3619 60.038L61.7351 57.3095L22.3733 32.8011L18 35.5296Z" fill="white"/>
</svg>
