<svg width="100" height="100" viewBox="0 0 100 100" fill="none" xmlns="http://www.w3.org/2000/svg">
<rect width="100" height="100" rx="26" fill="#EEEEEE"/>
<path d="M76.6136 29.8011V55.3709L80.9869 58.0993V32.5296L76.6136 29.8011ZM18 58.0993L22.3733 55.3709V29.8011L18 32.5296V58.0993ZM39.4331 57.8474L59.5537 70.3691V64.9262L40.7168 53.2028L39.4331 54.0009V57.8474ZM60.7088 77.629L39.4331 64.38V69.8228L45.1136 73.3608L38.2781 77.6149C38.1741 77.6805 38.0878 77.7743 38.0279 77.887C37.9679 77.9997 37.9364 78.1274 37.9364 78.2574C37.9364 78.3873 37.9679 78.515 38.0279 78.6277C38.0878 78.7404 38.1741 78.8342 38.2781 78.8999L41.6119 80.9859L49.4869 76.0893L57.3619 80.9859L60.6956 78.8999C61.1629 78.6366 61.1629 77.9092 60.7088 77.629ZM76.6136 45.0484V67.7255C76.6136 68.2972 77.1859 68.6623 77.6531 68.368L80.6509 66.5084C80.7554 66.4421 80.8424 66.3479 80.9036 66.2349C80.9647 66.1219 80.9979 65.9939 81 65.8631V42.3341L76.6136 45.0484ZM68.0273 74.3543L70.8412 72.5909C70.9996 72.4944 71.1312 72.354 71.2226 72.1844C71.3139 72.0147 71.3617 71.8219 71.361 71.6258V48.3232L66.9878 51.0489V73.7259C66.9878 74.2863 67.56 74.6486 68.0273 74.3543ZM57.3619 81L61.3965 78.4951C61.5012 78.4294 61.5885 78.3358 61.65 78.2233C61.7116 78.1108 61.7454 77.9832 61.7483 77.8526V54.3095L57.3619 57.038V81ZM37.5904 78.481L41.625 80.9859V57.038L37.2518 54.3095V77.8385C37.2518 78.1045 37.383 78.3564 37.5904 78.481ZM28.1456 72.6051L30.9596 74.3684C31.0648 74.4329 31.1837 74.4667 31.3047 74.4665C31.4257 74.4663 31.5445 74.432 31.6495 74.3672C31.7545 74.3023 31.8419 74.209 31.9032 74.0966C31.9645 73.9841 31.9976 73.8563 31.9991 73.7259V51.0347L27.6259 48.309V71.6258C27.6259 72.0333 27.8201 72.4098 28.1456 72.6051ZM18.5197 66.6188L21.3337 68.3821C21.4391 68.4467 21.5583 68.4806 21.6795 68.4802C21.8007 68.4799 21.9197 68.4454 22.0247 68.3802C22.1298 68.315 22.2172 68.2213 22.2783 68.1084C22.3395 67.9956 22.3722 67.8675 22.3733 67.7368V45.0484L18 42.3341V65.6536C18 66.0442 18.1943 66.4094 18.5197 66.6188ZM80.9869 32.5296L76.6136 29.8011L68.7386 34.6977L63.4991 31.4371L70.3346 27.1859C70.4386 27.1199 70.5248 27.0257 70.5847 26.9128C70.6445 26.7999 70.676 26.672 70.676 26.5419C70.676 26.4119 70.6445 26.284 70.5847 26.1711C70.5248 26.0582 70.4386 25.964 70.3346 25.898L67.5075 24.1347C67.3495 24.0379 67.1708 23.9871 66.9891 23.9871C66.8073 23.9871 66.6287 24.0379 66.4706 24.1347L59.1127 28.7086L53.8733 25.4508L60.7088 21.1968C60.8128 21.1311 60.899 21.0373 60.959 20.9246C61.0189 20.8119 61.0505 20.6842 61.0505 20.5543C61.0505 20.4243 61.0189 20.2966 60.959 20.1839C60.899 20.0712 60.8128 19.9774 60.7088 19.9118L57.8816 18.1484C57.7233 18.0512 57.5441 18 57.3619 18C57.1796 18 57.0005 18.0512 56.8421 18.1484L49.4869 22.7223L42.1316 18.1484C41.9733 18.0512 41.7941 18 41.6119 18C41.4296 18 41.2505 18.0512 41.0921 18.1484L38.265 19.9118C38.161 19.9774 38.0747 20.0712 38.0148 20.1839C37.9548 20.2966 37.9233 20.4243 37.9233 20.5543C37.9233 20.6842 37.9548 20.8119 38.0148 20.9246C38.0747 21.0373 38.161 21.1311 38.265 21.1968L76.59 45.0626L80.9606 42.3341L73.0856 37.4375L80.9869 32.5296ZM31.4794 24.1347L28.6654 25.898C28.5614 25.964 28.4752 26.0582 28.4153 26.1711C28.3555 26.284 28.324 26.4119 28.324 26.5419C28.324 26.672 28.3555 26.7999 28.4153 26.9128C28.4752 27.0257 28.5614 27.1199 28.6654 27.1859L66.9878 51.0489L71.361 48.3232L32.5163 24.1347C32.3582 24.0379 32.1796 23.9871 31.9978 23.9871C31.8161 23.9871 31.6374 24.0379 31.4794 24.1347ZM18 32.5296L25.875 37.4234L18 42.3341L22.3864 45.0484L30.2482 40.1519L35.5009 43.4266L27.6259 48.3232L31.9991 51.0489L39.8741 46.141L45.1136 49.4129L37.2386 54.3095L41.625 57.038L49.4869 52.1272L57.3619 57.038L61.7351 54.3095L22.3733 29.8011L18 32.5296Z" fill="black"/>
</svg>
